<svg version="1.0" xmlns="http://www.w3.org/2000/svg" width="1024.000000ptpx" height="1024.000000ptpx" viewBox="0 0 1024.000000 1024.000000" preserveAspectRatio="xMidYMid meet" transform="rotate(0) scale(1, 1)">

<g transform="translate(0.000000,1024.000000) scale(0.100000,-0.100000)" fill="#f9f871" stroke="none">
<path d="M4885 8669 c-295 -18 -340 -30 -358 -100 -5 -19 -12 -37 -15 -41 -4&#10;-4 -83 -14 -177 -22 -93 -9 -243 -25 -331 -36 -89 -11 -234 -26 -323 -35 -160&#10;-14 -200 -25 -233 -62 -54 -59 -59 -146 -28 -453 11 -107 20 -229 20 -271 0&#10;-98 -15 -114 -112 -122 -140 -10 -247 -118 -293 -292 -27 -107 -14 -229 36&#10;-327 53 -104 191 -197 324 -218 106 -17 105 -15 116 -225 5 -98 13 -237 19&#10;-309 14 -185 13 -320 -4 -359 -18 -44 -68 -85 -114 -93 -20 -3 -54 -10 -74&#10;-15 -108 -27 -251 -209 -288 -368 -30 -126 9 -300 91 -408 81 -107 182 -159&#10;331 -170 110 -8 128 -20 128 -88 0 -36 -7 -54 -35 -90 -19 -25 -39 -63 -44&#10;-83 -10 -43 -8 -1048 3 -1222 4 -63 12 -130 18 -147 15 -50 58 -75 145 -83 44&#10;-5 81 -14 90 -22 12 -12 16 -75 25 -331 11 -334 9 -384 -21 -433 -27 -45 -72&#10;-61 -201 -74 -198 -19 -293 -53 -372 -131 -48 -48 -68 -94 -68 -161 0 -112 69&#10;-135 335 -109 50 5 97 5 106 1 8 -5 53 -16 99 -26 96 -19 230 -15 365 11 101&#10;19 137 19 222 -1 37 -9 109 -17 160 -17 83 -2 92 -4 97 -22 3 -11 13 -109 22&#10;-218 22 -247 26 -238 -103 -211 -107 22 -286 24 -363 5 -123 -31 -215 -102&#10;-266 -206 -31 -65 -27 -114 13 -151 50 -46 81 -49 503 -48 527 1 618 15 659&#10;100 13 25 12 63 -4 294 -20 297 -23 407 -13 433 7 15 25 17 176 17 140 0 172&#10;-3 182 -15 15 -18 10 -270 -11 -541 -18 -231 -12 -241 156 -270 83 -15 169&#10;-18 500 -18 427 -1 458 2 508 48 40 37 44 84 14 150 -47 102 -145 178 -264&#10;207 -68 17 -243 14 -348 -5 -49 -9 -95 -16 -102 -16 -31 0 -34 39 -18 233 9&#10;106 18 199 21 208 4 14 34 17 213 22 116 4 286 2 383 -4 250 -16 563 3 630 37&#10;38 20 58 53 64 110 9 75 -11 132 -65 185 -39 39 -61 50 -146 77 -55 18 -138&#10;40 -185 51 -111 25 -118 28 -138 65 -15 27 -17 73 -20 389 l-3 358 28 28 c20&#10;20 44 30 78 35 65 10 98 28 130 71 50 64 55 104 54 399 -1 431 -16 938 -28&#10;975 -6 19 -22 51 -37 72 -14 21 -28 55 -31 76 -7 52 13 147 36 167 9 8 52 22&#10;94 30 241 46 376 247 365 539 -3 89 -8 111 -35 168 -66 142 -142 189 -307 189&#10;-63 0 -97 4 -104 13 -5 6 -12 91 -16 187 -21 602 -20 684 9 714 8 8 46 19 85&#10;26 81 14 186 62 245 113 111 96 161 281 120 440 -21 79 -49 131 -103 190 -60&#10;64 -129 97 -204 97 -49 0 -59 3 -77 26 -27 34 -27 86 -1 354 44 457 28 498&#10;-207 520 -60 6 -227 24 -373 41 -146 16 -321 35 -389 42 l-124 12 -14 42 c-8&#10;23 -29 55 -47 71 l-33 29 -189 6 c-225 8 -369 7 -559 -4z m732 -73 c28 -24 28&#10;-24 34 -188 4 -91 8 -290 10 -443 l4 -279 -80 -17 c-117 -26 -132 -33 -155&#10;-79 -11 -22 -27 -40 -36 -40 -8 0 -27 -20 -42 -45 -15 -24 -30 -45 -34 -45 -5&#10;0 -8 43 -8 95 l0 94 -37 10 c-21 5 -88 17 -149 27 -109 16 -114 16 -215 -5&#10;-141 -30 -167 -39 -174 -62 -4 -11 -31 -45 -60 -75 l-54 -56 -5 33 c-3 19 -8&#10;151 -11 294 -3 143 -10 357 -16 475 -12 255 -10 275 34 295 37 17 338 31 724&#10;33 242 2 242 2 270 -22z m-1127 -156 c10 -5 23 -25 29 -42 15 -45 31 -291 31&#10;-478 l0 -155 -113 -2 c-61 -2 -167 -5 -234 -9 l-122 -6 -83 -84 c-71 -73 -83&#10;-82 -89 -65 -4 10 -12 22 -18 26 -12 7 -205 -67 -303 -117 -47 -23 -58 -33&#10;-58 -53 0 -14 -4 -25 -9 -25 -13 0 -24 128 -52 621 -16 283 -9 301 122 319 41&#10;5 148 16 239 25 91 8 226 22 300 30 188 21 197 22 273 23 38 1 77 -2 87 -8z&#10;m1535 -5 c77 -9 210 -22 295 -30 189 -18 393 -43 414 -51 8 -3 23 -25 32 -49&#10;15 -40 15 -65 5 -267 -18 -341 -30 -522 -51 -773 -11 -126 -24 -338 -30 -470&#10;-6 -132 -13 -247 -16 -257 -2 -9 -12 -20 -22 -24 -28 -14 -811 -17 -855 -4&#10;-52 15 -67 53 -67 171 0 82 2 91 20 96 11 3 20 9 20 14 0 5 13 9 29 9 32 0&#10;210 85 216 103 7 20 13 70 14 111 l1 39 249 -8 c218 -6 250 -5 258 8 5 10 26&#10;17 58 19 72 4 75 13 74 248 0 188 -1 199 -32 310 l-32 115 -235 -3 -235 -2&#10;-40 -44 c-58 -62 -72 -71 -90 -56 -8 6 -71 20 -141 31 -70 11 -129 20 -130 22&#10;-8 8 -26 567 -20 629 11 108 27 128 109 128 34 0 125 -7 202 -15z m-1471 -805&#10;l30 -95 -3 -265 c-1 -146 -6 -281 -12 -301 -6 -23 -27 -53 -59 -83 l-49 -46&#10;-388 0 -388 0 -63 58 -62 58 2 254 3 254 154 63 c84 35 155 63 156 61 2 -2 -7&#10;-68 -20 -148 -12 -80 -33 -210 -45 -289 -12 -79 -24 -149 -26 -155 -3 -8 77&#10;-12 291 -14 240 -3 295 -1 295 10 -1 7 -7 37 -13 67 l-13 54 -128 38 c-71 20&#10;-132 41 -137 46 -19 19 -99 216 -99 246 0 17 -5 52 -11 76 l-10 43 58 67 c31&#10;36 60 70 63 74 10 12 189 25 325 23 l120 -1 29 -95z m2052 -17 c28 -105 29&#10;-114 26 -303 -2 -106 -6 -198 -8 -202 -3 -5 -147 -6 -320 -3 l-314 6 0 -94 0&#10;-95 -79 -41 -79 -41 -206 0 -206 0 21 41 c36 71 55 83 190 118 l126 33 23 55&#10;c12 30 21 55 19 57 -2 1 -77 -4 -167 -12 -89 -8 -165 -13 -167 -10 -3 3 -24&#10;69 -46 148 -26 93 -38 152 -34 169 12 47 93 168 117 174 13 2 64 14 114 25&#10;l91 21 133 -19 c74 -11 136 -23 139 -25 2 -3 7 -79 9 -169 l5 -164 46 -5 c25&#10;-3 48 -3 50 -1 3 2 -7 30 -22 62 -14 32 -31 93 -37 140 l-11 83 61 69 c54 61&#10;67 70 99 71 20 1 97 5 171 8 74 4 156 8 181 9 l46 2 29 -107z m-1338 12 c10&#10;-4 12 -79 10 -352 l-3 -348 -70 -39 -70 -39 -197 -5 c-108 -2 -204 -2 -212 1&#10;-13 5 -10 15 16 58 18 28 42 57 53 64 11 7 72 25 136 41 l117 28 26 55 c14 30&#10;23 57 21 60 -3 2 -78 -3 -168 -12 -89 -8 -166 -12 -170 -8 -8 8 -87 286 -87&#10;306 0 6 24 49 53 95 l53 85 114 25 115 25 125 -18 c69 -10 131 -20 138 -22z&#10;m-1843 -180 c19 -18 25 -35 25 -70 l0 -45 -76 0 c-41 0 -85 -5 -97 -11 -53&#10;-27 -116 -107 -102 -130 4 -5 19 4 35 21 42 45 50 38 34 -27 -18 -77 -17 -139&#10;2 -196 14 -42 14 -48 -1 -71 -21 -31 -11 -32 46 -6 44 19 133 27 155 12 24&#10;-15 45 -74 42 -115 l-3 -42 -75 0 c-63 1 -83 5 -128 30 -135 74 -212 243 -184&#10;406 22 126 73 201 167 245 68 32 128 32 160 -1z m3580 -9 c110 -65 169 -245&#10;131 -396 -43 -169 -173 -280 -328 -280 -54 0 -62 12 -56 90 3 38 8 48 38 68&#10;42 28 92 25 164 -10 50 -24 69 -19 41 12 -17 19 -17 23 -2 71 20 62 21 115 3&#10;192 -7 31 -9 57 -4 57 5 0 22 -13 38 -30 16 -16 31 -26 34 -21 11 17 -37 90&#10;-76 118 -37 25 -50 28 -117 28 l-76 0 -3 42 c-3 35 2 47 23 69 25 24 32 26 86&#10;21 38 -3 75 -14 104 -31z m-3071 -208 c19 -42 45 -83 58 -91 12 -9 64 -27 115&#10;-41 127 -36 143 -43 143 -64 0 -17 -12 -18 -207 -14 -115 2 -209 5 -211 7 -4&#10;4 38 316 45 335 4 9 9 2 14 -21 4 -20 24 -70 43 -111z m-524 37 c37 -19 50&#10;-43 50 -90 0 -32 -2 -36 -17 -29 -10 5 -45 9 -78 9 l-60 1 -3 35 c-2 24 4 44&#10;18 62 24 31 48 34 90 12z m3504 0 c18 -18 38 -84 29 -98 -3 -5 -24 -7 -47 -4&#10;-23 3 -58 0 -78 -8 l-38 -13 0 29 c0 44 17 77 47 93 36 20 68 20 87 1z m-1484&#10;-200 c41 0 112 3 158 7 75 7 82 6 82 -11 0 -13 -13 -21 -52 -30 -134 -31 -153&#10;-39 -177 -81 -12 -22 -29 -40 -36 -40 -14 0 -85 -100 -85 -119 0 -17 55 -22&#10;204 -20 l151 2 -4 -114 c-2 -85 -7 -119 -19 -131 -14 -17 -51 -18 -502 -18&#10;-404 0 -489 2 -506 14 -17 13 -19 29 -22 135 l-4 121 220 0 c174 0 222 3 231&#10;14 6 7 29 16 51 19 22 3 75 25 118 49 l77 43 4 135 3 135 17 -55 17 -55 74 0z&#10;m-779 0 c4 -4 213 9 302 19 31 3 38 1 35 -12 -2 -11 -25 -21 -73 -33 -148 -34&#10;-153 -36 -180 -83 -14 -24 -32 -47 -40 -50 -8 -3 -28 -24 -45 -47 l-30 -42 1&#10;174 c0 160 1 170 13 126 7 -26 15 -49 17 -52z m2259 40 c34 -17 47 -55 34 -94&#10;-9 -25 -12 -26 -95 -26 -84 0 -86 0 -83 23 5 45 26 80 57 96 40 20 51 20 87 1z&#10;m-3476 -16 c21 -16 26 -29 26 -64 l0 -43 -72 -4 c-58 -4 -76 -2 -85 10 -20 24&#10;-16 79 7 102 27 27 89 27 124 -1z m1133 -452 c-3 -62 -9 -94 -20 -104 -12 -13&#10;-58 -16 -264 -19 -136 -2 -347 -9 -468 -15 -199 -9 -220 -9 -231 6 -7 9 -15&#10;64 -18 123 -4 59 -8 122 -11 140 -4 30 -3 31 18 20 16 -10 119 -14 397 -15&#10;318 -2 377 0 397 12 13 9 44 18 70 22 33 4 57 16 82 39 l36 33 8 -77 c4 -42 6&#10;-117 4 -165z m733 -186 c39 -11 37 -49 -6 -117 -51 -80 -128 -245 -163 -351&#10;-34 -101 -52 -238 -44 -334 l6 -67 -45 -26 c-59 -35 -145 -36 -203 -3 -83 47&#10;-132 180 -121 328 9 119 28 188 83 299 39 79 62 110 139 188 l91 92 119 -1&#10;c65 -1 130 -4 144 -8z m317 -8 c7 -3 21 -19 30 -37 14 -27 16 -84 16 -441 1&#10;-297 -3 -416 -11 -432 -20 -37 -156 -121 -208 -129 -164 -24 -292 94 -302 281&#10;-8 146 46 347 142 529 53 102 155 222 199 235 30 9 102 6 134 -6z m326 1 c32&#10;-12 140 -220 186 -359 95 -289 71 -542 -63 -658 -38 -33 -120 -67 -162 -67&#10;-51 0 -120 23 -157 53 l-29 22 -3 507 -3 507 31 4 c37 6 180 -1 200 -9z&#10;m-1651 -21 c71 -76 167 -283 204 -440 32 -138 2 -308 -69 -389 -68 -77 -130&#10;-93 -216 -54 l-44 20 6 83 c14 197 -49 428 -184 675 -22 40 -39 81 -37 90 6&#10;32 48 42 184 42 129 0 130 0 156 -27z m258 7 c24 -24 23 -1 25 -490 1 -212 8&#10;-486 14 -610 13 -232 16 -638 6 -671 -4 -11 -15 -24 -26 -30 -13 -7 -173 -12&#10;-448 -16 -377 -5 -429 -4 -442 10 -18 18 -25 97 -35 392 l-7 190 26 24 c25 23&#10;28 23 89 12 76 -15 132 -5 218 39 33 17 68 30 79 30 31 0 80 -82 151 -253 34&#10;-83 34 -75 14 -249 -4 -38 -3 -58 4 -58 6 0 66 27 134 60 l124 61 16 96 c18&#10;117 12 155 -42 269 -22 46 -40 93 -40 104 0 12 15 29 38 44 50 31 89 78 97&#10;116 12 52 -6 54 -35 3 -29 -51 -81 -88 -115 -82 -40 8 -27 38 44 106 85 82&#10;111 136 118 242 11 155 -32 342 -118 513 -45 89 -48 119 -17 148 30 27 100 28&#10;128 0z m350 4 c8 -8 -6 -34 -53 -96 -122 -162 -168 -303 -169 -518 -1 -106 2&#10;-134 21 -182 39 -100 133 -168 233 -168 21 0 28 -5 28 -18 0 -74 -131 -57&#10;-207 26 -38 41 -43 27 -11 -30 17 -30 37 -46 85 -69 34 -16 64 -33 67 -37 3&#10;-4 -5 -28 -16 -52 -11 -25 -28 -68 -38 -97 -18 -50 -18 -54 -1 -100 10 -26 24&#10;-79 32 -117 8 -44 19 -70 29 -73 8 -3 54 -21 102 -39 94 -36 154 -45 145 -20&#10;-20 50 -39 178 -33 217 9 58 114 267 146 290 22 15 32 16 80 7 71 -14 150 2&#10;236 47 46 24 66 30 72 22 13 -16 22 -700 11 -742 l-9 -33 -293 -4 c-160 -3&#10;-328 -5 -372 -4 -44 1 -125 -3 -180 -7 -142 -11 -136 -19 -146 184 -5 90 -10&#10;333 -13 539 -3 206 -10 508 -16 670 -15 433 -19 424 150 418 62 -2 114 -8 120&#10;-14z m1486 8 c19 -12 111 -182 145 -267 99 -249 62 -515 -83 -591 -32 -17&#10;-113 -18 -174 -3 l-44 11 0 168 c0 224 -19 301 -140 565 -26 59 -30 74 -21 98&#10;l11 27 147 0 c82 0 153 -4 159 -8z m297 -247 c8 -233 5 -431 -13 -1105 -9&#10;-328 -20 -420 -51 -442 -8 -5 -61 -7 -124 -4 -60 3 -253 9 -428 13 -264 5&#10;-319 9 -330 21 -9 11 -12 97 -12 344 0 180 1 328 3 328 2 0 17 -7 33 -16 82&#10;-42 208 -35 291 16 51 31 51 32 76 13 15 -11 57 -82 99 -166 l74 -147 -28&#10;-110 c-20 -79 -24 -113 -16 -121 7 -7 44 4 131 42 l120 52 16 61 c33 126 46&#10;195 39 213 -4 10 -29 55 -55 100 -26 44 -48 85 -48 90 0 5 21 24 46 41 30 22&#10;52 48 66 78 26 60 10 76 -22 23 -27 -43 -89 -83 -115 -73 -19 8 -31 52 -17 66&#10;6 6 34 22 64 37 190 95 211 428 47 748 -75 147 -71 155 81 143 l65 -5 8 -240z&#10;m-2795 182 c64 -102 141 -262 177 -371 67 -198 69 -382 7 -518 -38 -83 -78&#10;-128 -146 -162 -101 -51 -196 -44 -264 19 l-37 33 -7 209 c-4 114 -10 215 -14&#10;223 -6 16 -18 333 -19 510 l0 105 85 6 c47 3 106 6 132 7 l46 2 40 -63z m3095&#10;-717 c26 -16 56 -44 67 -62 31 -51 60 -155 67 -239 7 -96 -27 -259 -68 -324&#10;-52 -83 -136 -125 -245 -125 -58 0 -66 2 -75 23 -22 48 22 142 79 171 70 36&#10;154 40 225 11 24 -10 23 21 -1 34 -16 9 -18 20 -14 89 5 86 -6 133 -45 194&#10;-29 47 -29 50 2 38 34 -13 34 12 -1 39 -39 31 -91 44 -150 38 -68 -7 -85 7&#10;-77 61 10 65 34 80 129 81 50 1 68 -4 107 -29z m-3438 -10 c3 -5 9 -48 12 -95&#10;7 -98 0 -107 -62 -81 -51 21 -108 20 -154 -4 -42 -21 -91 -73 -91 -96 0 -12 5&#10;-12 31 2 50 26 55 6 18 -77 -31 -71 -32 -77 -26 -172 4 -63 2 -106 -5 -122&#10;-16 -36 -7 -38 43 -11 73 40 137 55 184 42 35 -10 44 -18 67 -66 18 -36 27&#10;-72 28 -102 0 -46 -1 -47 -35 -54 -46 -8 -187 11 -228 32 -71 37 -106 75 -149&#10;160 -35 72 -42 96 -46 163 -8 146 55 334 136 401 67 55 149 90 213 90 32 0 61&#10;-4 64 -10z m2777 -131 c21 -11 169 -294 171 -328 2 -21 -8 -31 -53 -58 -37&#10;-23 -65 -33 -85 -31 -28 3 -35 14 -115 171 -83 162 -85 168 -70 194 9 15 31&#10;38 49 50 33 23 61 23 103 2z m-1192 -20 c7 -11 27 -38 46 -59 l35 -38 -49 -99&#10;c-26 -54 -56 -119 -65 -144 -10 -26 -26 -54 -36 -63 -17 -15 -24 -14 -105 21&#10;-75 32 -85 40 -80 58 11 37 158 300 181 323 28 28 59 28 73 1z m-877 -10 c29&#10;-13 187 -311 187 -352 0 -20 -10 -33 -40 -52 -56 -35 -120 -59 -129 -49 -13&#10;14 -181 343 -181 353 0 5 18 32 40 60 43 54 71 64 123 40z m2635 -23 c30 -26&#10;52 -68 52 -97 0 -17 -4 -20 -22 -15 -62 17 -78 17 -123 -3 -26 -12 -49 -21&#10;-51 -21 -8 0 -4 56 7 93 7 26 21 44 42 57 36 22 60 19 95 -14z m-3389 -62 c26&#10;-19 60 -87 61 -123 0 -20 -3 -22 -22 -16 -13 4 -56 10 -97 12 l-73 5 5 39 c11&#10;83 70 122 126 83z m3438 -119 c43 -49 23 -105 -36 -105 -12 0 -48 -9 -81 -21&#10;-79 -27 -94 -21 -87 32 6 49 28 84 70 110 43 27 104 20 134 -16z m-3430 -71&#10;c32 -20 63 -73 63 -106 0 -35 -10 -40 -44 -22 -37 19 -80 18 -134 -3 -51 -19&#10;-62 -11 -62 47 0 88 100 135 177 84z m3006 -128 c-1 -15 -9 -52 -18 -82 -15&#10;-53 -17 -55 -85 -89 -79 -40 -100 -43 -100 -16 0 40 24 122 40 136 26 24 144&#10;85 155 81 6 -2 9 -15 8 -30z m-1521 -38 c49 -21 67 -50 82 -130 l7 -37 -53 18&#10;c-103 36 -106 39 -118 100 -6 31 -13 62 -16 70 -5 16 28 9 98 -21z m-537 -50&#10;c-12 -85 -17 -91 -104 -132 -45 -21 -84 -36 -87 -33 -3 3 -2 34 3 69 l8 63 85&#10;42 c47 23 89 42 93 42 5 1 6 -23 2 -51z m2112 -422 c90 -19 109 -29 129 -67&#10;26 -50 44 -392 47 -866 l2 -424 -32 -29 c-18 -16 -59 -37 -90 -47 -54 -17&#10;-125 -18 -1073 -15 -644 2 -1094 -1 -1230 -8 -118 -6 -300 -13 -405 -16 -273&#10;-8 -303 5 -326 136 -13 77 -29 1101 -17 1174 9 58 41 97 96 115 24 8 164 15&#10;392 21 195 5 429 15 520 21 219 16 930 27 1475 24 348 -3 455 -6 512 -19z&#10;m-1707 -1609 c-173 -170 -251 -238 -265 -235 -16 4 -173 174 -233 253 -25 33&#10;-50 63 -56 67 -9 6 19 13 89 21 17 2 154 5 305 5 l275 2 -115 -113z m397 89&#10;l28 -24 6 -294 c4 -161 12 -414 19 -563 7 -148 10 -297 8 -330 l-3 -60 -165 3&#10;c-91 2 -166 5 -168 7 -2 1 -7 245 -12 541 -5 297 -12 553 -16 571 -10 48 1 73&#10;51 126 l46 47 89 0 c80 0 92 -3 117 -24z m690 11 c3 -4 -218 -255 -262 -297&#10;l-47 -45 -164 170 c-90 94 -164 174 -164 178 0 7 630 0 637 -6z m500 -10 c4&#10;-5 12 -180 16 -390 4 -210 9 -402 10 -427 l2 -45 -137 -3 c-127 -2 -139 -1&#10;-158 18 -15 15 -20 33 -20 78 0 31 -3 183 -7 337 -4 154 -7 314 -7 355 l-1 75&#10;45 6 c62 9 247 6 257 -4z m-2310 -32 c28 -20 31 -45 43 -360 12 -341 -1 -439&#10;-63 -479 -17 -12 -43 -13 -124 -8 -56 4 -107 12 -112 17 -22 22 -30 164 -27&#10;484 3 309 5 336 22 348 27 20 232 18 261 -2z m1919 7 c37 -24 38 -45 42 -633&#10;l4 -576 -23 -17 c-21 -14 -65 -16 -369 -16 l-345 0 0 178 c0 97 -6 319 -13&#10;492 -7 175 -9 335 -5 360 7 39 12 45 35 48 21 3 35 -8 74 -55 115 -136 139&#10;-157 178 -156 47 1 65 17 196 173 176 210 192 225 226 202z m-1658 -192 c70&#10;-90 139 -171 153 -179 37 -21 72 -4 167 81 80 72 126 103 142 93 17 -11 39&#10;-102 50 -204 11 -117 13 -453 3 -680 l-6 -152 -291 3 c-279 3 -293 4 -333 25&#10;-23 13 -44 31 -47 41 -3 10 -6 236 -6 502 0 267 -1 506 -2 532 -1 50 19 111&#10;34 106 5 -2 67 -78 136 -168z m2401 -730 c118 -39 170 -85 196 -173 21 -70 19&#10;-104 -5 -117 -11 -6 -59 -14 -105 -17 l-85 -6 0 27 c0 47 -28 86 -77 108 -96&#10;43 -285 59 -423 38 -85 -14 -102 -19 -97 -33 2 -8 66 -11 208 -12 168 -1 212&#10;-4 249 -18 76 -30 100 -68 63 -98 -22 -19 -457 -19 -520 -1 l-43 13 0 145 c0&#10;107 3 146 13 149 36 14 224 23 383 20 150 -3 190 -7 243 -25z m-2628 -20 c0&#10;-14 4 -61 9 -105 13 -122 9 -130 -64 -154 -94 -31 -199 -44 -326 -39 -160 6&#10;-222 38 -206 104 15 57 86 67 343 50 120 -8 133 -7 139 8 4 9 4 19 1 23 -11&#10;11 -223 32 -322 33 -85 0 -106 -4 -140 -23 -45 -25 -75 -75 -75 -124 0 -31 -1&#10;-32 -54 -38 -30 -4 -95 -5 -144 -4 -79 4 -94 7 -116 28 -14 14 -26 31 -26 38&#10;0 28 40 90 81 127 71 65 114 78 289 88 85 5 160 10 165 12 6 2 108 3 227 2&#10;l218 -1 1 -25z m695 -366 l30 -4 13 -214 c6 -118 14 -237 18 -265 l6 -51 -44&#10;0 c-63 0 -230 37 -247 54 -15 15 -33 157 -47 384 l-8 113 124 -6 c68 -3 138&#10;-8 155 -11z m850 -103 c-8 -126 -26 -327 -32 -357 -2 -12 -16 -27 -31 -33 -41&#10;-16 -178 -41 -230 -41 l-46 0 6 53 c13 111 29 387 26 431 l-4 45 40 4 c22 2&#10;93 4 159 4 l119 0 -7 -106z m-1290 -396 c49 -9 141 -29 205 -45 63 -16 156&#10;-34 207 -41 73 -9 92 -15 93 -28 0 -9 2 -24 4 -34 5 -29 -14 -85 -32 -92 -63&#10;-24 -244 -37 -563 -42 -375 -6 -450 0 -471 39 -25 47 40 153 125 203 93 55&#10;258 70 432 40z m1792 0 c73 -17 123 -47 173 -102 45 -50 63 -100 50 -136 -17&#10;-44 -80 -50 -465 -44 -315 4 -446 14 -563 42 -25 6 -36 36 -37 100 l-1 40 90&#10;11 c50 6 119 19 155 29 77 20 263 62 305 68 72 10 234 6 293 -8z"/>
<path d="M4990 8525 c-71 -20 -97 -32 -158 -74 -65 -44 -156 -137 -147 -151 3&#10;-5 40 16 83 47 94 67 127 85 216 112 162 50 331 15 475 -99 29 -23 55 -39 58&#10;-36 3 3 0 19 -7 36 -27 65 -162 150 -269 170 -72 13 -196 11 -251 -5z"/>
<path d="M4976 8345 c-134 -34 -275 -125 -310 -200 -17 -35 -17 -38 4 -80 45&#10;-93 182 -187 321 -220 123 -29 284 -13 382 36 54 28 164 133 188 181 31 61 26&#10;98 -23 145 -54 51 -138 104 -203 128 -69 24 -278 30 -359 10z m307 -50 c79&#10;-21 131 -49 189 -103 54 -50 56 -65 17 -128 -108 -176 -386 -228 -619 -116&#10;-68 33 -160 120 -160 150 0 58 144 156 282 192 89 23 213 25 291 5z"/>
<path d="M5058 8215 c-60 -34 -78 -130 -33 -183 51 -61 129 -66 184 -12 78 79&#10;34 198 -76 207 -31 2 -58 -2 -75 -12z m131 -49 c42 -44 24 -124 -30 -141 -35&#10;-11 -90 15 -104 48 -15 35 -5 85 22 105 29 21 87 15 112 -12z"/>
<path d="M5100 8135 c-26 -31 13 -82 44 -56 19 16 21 42 4 59 -16 16 -33 15&#10;-48 -3z"/>
<path d="M4670 7935 c0 -50 80 -143 146 -171 37 -15 108 -19 100 -5 -3 5 -37&#10;27 -75 50 -38 22 -89 63 -114 91 -48 53 -57 59 -57 35z"/>
<path d="M5510 7895 c-30 -30 -85 -71 -122 -90 -78 -41 -89 -61 -27 -51 81 13&#10;166 72 199 137 40 76 23 78 -50 4z"/>
<path d="M3948 8070 c-9 -6 -26 -26 -38 -45 -12 -19 -35 -49 -52 -65 -25 -25&#10;-29 -35 -23 -63 10 -47 31 -74 73 -96 56 -28 107 -35 122 -16 16 19 29 19 108&#10;-1 52 -13 71 -14 105 -4 23 6 53 12 67 14 59 6 110 63 110 121 0 34 -30 105&#10;-51 121 -16 12 -109 34 -146 34 -14 0 -39 -7 -57 -15 -29 -14 -37 -14 -91 5&#10;-63 22 -101 25 -127 10z m116 -46 c28 -7 54 -20 58 -29 12 -20 28 -19 28 1 0&#10;8 16 22 36 30 32 14 43 14 97 0 71 -18 82 -27 96 -81 11 -41 -1 -73 -38 -102&#10;-34 -26 -113 -4 -158 45 -32 35 -33 35 -33 11 0 -41 -23 -63 -64 -62 -58 2&#10;-108 33 -138 89 -25 46 -26 51 -11 74 22 35 45 51 63 44 8 -3 37 -12 64 -20z"/>
<path d="M6184 8050 c-12 -5 -32 -23 -45 -40 -13 -17 -40 -47 -58 -65 -60 -58&#10;-42 -133 42 -174 45 -22 111 -28 122 -11 3 6 26 10 50 10 37 0 47 5 74 35 40&#10;46 46 72 29 132 -12 45 -16 50 -78 79 -77 38 -108 45 -136 34z m94 -51 c72&#10;-24 92 -47 92 -105 0 -35 -5 -47 -32 -69 -33 -28 -45 -28 -110 -1 -44 19 -75&#10;57 -84 103 -5 29 -2 39 22 64 33 35 33 35 112 8z"/>
<path d="M4238 7533 c-78 -4 -76 -1 -57 -110 6 -35 16 -63 23 -63 6 0 61 -7&#10;121 -15 61 -8 113 -15 116 -15 4 0 -7 47 -24 105 l-30 105 -41 -2 c-23 -1 -71&#10;-3 -108 -5z m61 -100 c15 -53 15 -52 -26 -46 -46 7 -49 9 -58 51 -7 32 -6 32&#10;34 32 38 0 41 -2 50 -37z"/>
<path d="M6249 7513 c-25 -4 -25 -5 -17 -66 14 -110 9 -103 90 -111 40 -3 96&#10;-9 124 -12 l51 -6 -32 98 -31 99 -80 1 c-43 1 -91 -1 -105 -3z m97 -80 c3 -16&#10;8 -36 11 -45 3 -15 -2 -18 -29 -18 -43 0 -58 15 -58 57 0 31 2 33 35 33 30 0&#10;35 -4 41 -27z"/>
<path d="M5572 7368 c11 -51 24 -97 28 -101 4 -5 38 -2 76 5 78 16 81 19 83&#10;131 l1 57 -104 0 -104 0 20 -92z m88 -20 c0 -41 -3 -48 -19 -48 -15 0 -22 10&#10;-29 43 -11 51 -10 52 22 52 24 0 26 -3 26 -47z"/>
<path d="M4850 7445 c1 -11 9 -54 19 -95 l18 -75 44 2 c97 4 107 10 114 56 3&#10;23 6 62 8 86 l2 45 -102 0 c-97 1 -103 0 -103 -19z m106 -76 c-3 -17 -6 -38&#10;-6 -45 0 -8 -9 -14 -20 -14 -11 0 -20 6 -20 14 0 7 -3 28 -6 45 -6 30 -5 31&#10;26 31 31 0 32 -1 26 -31z"/>
<path d="M4939 6051 c-62 -62 -21 -161 66 -161 39 0 75 39 82 87 5 37 2 45&#10;-25 73 -41 40 -83 41 -123 1z m95 -17 c25 -25 20 -81 -9 -100 -30 -20 -58 -11&#10;-73 22 -16 33 -15 45 4 72 18 26 56 29 78 6z"/>
<path d="M4982 6008 c-26 -26 -4 -68 27 -48 15 8 11 52 -4 57 -6 2 -16 -2 -23&#10;-9z"/>
<path d="M5409 5945 c-26 -14 -49 -59 -49 -97 0 -26 53 -78 80 -78 88 0 131&#10;116 63 170 -30 23 -58 25 -94 5z m72 -25 c30 -17 26 -85 -6 -106 -30 -19 -58&#10;-11 -73 21 -14 30 -2 68 25 84 23 13 30 13 54 1z"/>
<path d="M5427 5894 c-12 -13 -7 -52 7 -57 18 -7 39 17 34 40 -3 18 -29 29&#10;-41 17z"/>
<path d="M5851 5936 c-41 -23 -61 -78 -45 -121 8 -20 56 -45 88 -45 87 0 127&#10;91 67 151 -32 32 -70 37 -110 15z m97 -38 c17 -15 15 -58 -5 -80 -33 -37 -103&#10;-13 -103 35 1 55 62 81 108 45z"/>
<path d="M5874 5875 c-8 -21 2 -45 19 -45 21 0 38 25 31 44 -8 20 -43 21 -50&#10;1z"/>
<path d="M4235 5997 c-37 -31 -45 -97 -16 -126 32 -32 103 -29 130 5 66 84&#10;-35 190 -114 121z m87 -24 c20 -18 24 -63 6 -81 -20 -20 -76 -15 -88 8 -11 21&#10;-6 55 12 78 14 17 48 15 70 -5z"/>
<path d="M4263 5944 c-3 -8 2 -23 11 -32 15 -15 17 -15 32 0 21 21 11 48 -16&#10;48 -11 0 -23 -7 -27 -16z"/>
<path d="M4010 5230 c-6 -11 -31 -32 -56 -46 -56 -33 -116 -36 -162 -9 -23 14&#10;-35 16 -43 8 -8 -8 -3 -18 18 -37 53 -50 137 -53 200 -8 49 35 86 80 80 96 -9&#10;22 -24 20 -37 -4z"/>
<path d="M5554 5309 c-53 -59 -168 -77 -251 -39 -55 24 -63 11 -17 -30 63 -55&#10;126 -65 199 -31 46 21 95 73 95 102 0 24 -3 24 -26 -2z"/>
<path d="M6297 6058 c-27 -21 -36 -60 -22 -94 31 -74 145 -52 145 26 0 60 -77&#10;102 -123 68z m85 -44 c16 -34 0 -58 -40 -62 -26 -3 -34 2 -43 21 -16 36 3 67&#10;42 67 22 0 32 -6 41 -26z"/>
<path d="M6324 6005 c-7 -18 3 -35 21 -35 18 0 26 25 12 39 -15 15 -27 14 -33&#10;-4z"/>
<path d="M6016 5252 c-49 -30 -68 -37 -111 -37 -31 1 -60 8 -75 18 -32 22 -40&#10;21 -40 -3 0 -23 49 -57 97 -66 46 -9 96 11 149 60 65 58 53 74 -20 28z"/>
<path d="M3798 5915 c-36 -20 -58 -64 -58 -112 1 -41 13 -63 47 -81 72 -39&#10;163 22 163 107 0 69 -91 120 -152 86z m93 -41 c20 -24 17 -89 -5 -113 -25 -28&#10;-61 -26 -91 4 -30 30 -32 64 -4 99 24 30 78 36 100 10z"/>
<path d="M3826 5845 c-19 -20 -20 -26 -2 -50 21 -29 48 -12 44 27 -4 37 -19&#10;45 -42 23z"/>
<path d="M4760 4430 c-885 -20 -893 -20 -935 -39 -22 -10 -47 -27 -56 -37 -42&#10;-49 -44 -79 -41 -544 2 -283 7 -455 13 -472 18 -44 83 -63 209 -61 58 1 638 4&#10;1289 7 799 4 1202 9 1238 16 29 6 63 20 75 30 l23 18 3 464 c3 488 0 532 -41&#10;576 -46 50 -38 49 -767 49 -377 0 -831 -3 -1010 -7z m1240 -59 c473 -8 492 -9&#10;505 -51 11 -33 -2 -40 -47 -24 -61 21 -102 17 -170 -17 l-61 -31 -57 26 c-98&#10;44 -134 44 -220 1 l-73 -37 -26 21 c-45 37 -124 71 -164 71 -49 0 -95 -22&#10;-137 -65 l-33 -34 -35 31 c-92 80 -208 79 -298 -4 -22 -19 -22 -19 -58 12 -35&#10;31 -108 60 -150 60 -43 0 -94 -21 -145 -59 l-53 -40 -44 34 c-88 67 -163 66&#10;-269 -6 -41 -27 -41 -27 -65 -8 -94 74 -189 78 -278 11 -37 -27 -38 -26 -112&#10;21 -43 27 -130 29 -177 4 -26 -14 -33 -15 -33 -4 0 26 37 48 96 57 32 5 178&#10;12 324 16 146 3 407 9 580 13 435 10 672 11 1200 2z m-235 -107 c20 -9 48 -33&#10;63 -52 22 -29 27 -48 31 -110 l3 -75 -47 6 c-26 4 -97 7 -156 7 l-109 0 0 77&#10;c0 67 3 80 26 111 48 62 110 74 189 36z m-697 -5 c57 -28 84 -84 80 -162 l-3&#10;-52 -165 -6 c-91 -3 -167 -4 -169 -3 -2 2 -6 34 -9 72 -4 66 -3 70 27 104 61&#10;70 154 88 239 47z m-387 -14 c67 -34 89 -72 89 -152 l0 -63 -160 0 c-88 0&#10;-160 3 -161 8 0 4 -2 26 -5 49 -10 75 20 131 91 167 43 23 88 20 146 -9z m746&#10;6 c52 -24 74 -64 81 -148 l5 -63 -167 0 -166 0 0 55 c0 58 15 98 46 127 56 50&#10;130 61 201 29z m694 -4 c55 -29 76 -65 84 -143 l7 -61 -47 -6 c-26 -4 -97 -7&#10;-156 -7 l-109 0 0 68 c0 72 12 99 59 137 52 42 98 45 162 12z m-1786 -10 c53&#10;-30 75 -75 75 -154 l0 -63 -155 0 -155 0 0 65 c0 77 25 136 68 159 41 23 120&#10;20 167 -7z m2112 12 c60 -23 73 -45 73 -131 l0 -78 -140 0 -141 0 3 77 3 77&#10;43 33 c47 36 103 44 159 22z m-2421 -42 c32 -35 34 -40 34 -112 l0 -75 -140 0&#10;-140 0 0 76 c0 86 8 107 53 135 26 16 45 19 96 16 58 -3 66 -6 97 -40z m1716&#10;-388 c210 -43 408 -238 453 -447 l7 -33 -1012 3 -1012 3 6 35 c11 67 72 172&#10;143 245 124 128 201 167 364 185 87 10 116 9 177 -4 131 -27 242 -92 242 -140&#10;0 -12 -14 -41 -30 -66 -47 -71 -35 -81 23 -19 92 99 226 185 350 225 81 26&#10;200 31 289 13z"/>
<path d="M5129 2930 c-64 -18 -99 -60 -99 -117 0 -50 56 -103 110 -103 34 0&#10;78 28 95 60 43 82 -23 182 -106 160z m34 -41 c30 -16 37 -28 37 -71 0 -70 -83&#10;-90 -115 -28 -23 45 3 99 53 109 2 1 13 -4 25 -10z"/>
<path d="M5072 2512 c-34 -32 -50 -90 -36 -131 14 -38 69 -71 120 -71 79 0&#10;125 65 102 147 -22 80 -126 111 -186 55z m127 -38 c43 -54 14 -124 -51 -124&#10;-69 0 -102 77 -53 125 33 34 77 33 104 -1z"/>
<path d="M5080 2098 c-100 -68 -55 -211 67 -211 63 0 95 33 101 106 4 49 1 57&#10;-24 86 -40 45 -96 52 -144 19z m95 -41 c44 -67 17 -136 -49 -123 -43 8 -69 42&#10;-62 81 12 60 81 87 111 42z"/>
</g>
</svg>